<svg id="Layer_1" data-name="Layer 1" xmlns="http://www.w3.org/2000/svg" viewBox="0 0 512 512"><defs><style>.cls-1{fill:#f5ceb7;}.cls-2{opacity:0.12;}.cls-3{fill:#17292d;}.cls-4{fill:#fff;}.cls-5{fill:#f44747;}</style></defs><title>eye-flat</title><path class="cls-1" d="M487.89,199.33c32.15,30,32.15,83.32,0,113.33C436.24,360.89,351.62,422.4,256,422.4S75.76,360.89,24.11,312.67c-32.15-30-32.15-83.32,0-113.33C75.76,151.11,160.38,89.6,256,89.6S436.24,151.11,487.89,199.33Z"/><g class="cls-2"><path class="cls-3" d="M487.89,199.33c-39.7-37.07-98.91-81.87-167.6-100.67,41.31,21.7,76.89,50.13,103.6,75.07,32.15,30,32.15,83.32,0,113.33C372.24,335.29,287.62,396.8,192,396.8a243.11,243.11,0,0,1-64.29-9.06C166.27,408,209.83,422.4,256,422.4c95.62,0,180.24-61.51,231.89-109.73C520,282.65,520,229.35,487.89,199.33Z"/></g><circle class="cls-4" cx="256" cy="256" r="115.2"/><circle class="cls-5" cx="256" cy="256" r="64"/><g class="cls-2"><path class="cls-3" d="M277.73,195.87a63.85,63.85,0,0,1-81.87,81.87,64,64,0,1,0,81.87-81.87Z"/></g><path class="cls-1" d="M256,51.2a12.8,12.8,0,0,1-12.8-12.8V12.8a12.8,12.8,0,1,1,25.6,0V38.4A12.8,12.8,0,0,1,256,51.2Z"/><path class="cls-1" d="M128,89.6a12.76,12.76,0,0,1-9.05-3.75l-25.6-25.6a12.8,12.8,0,1,1,18.1-18.1l25.6,25.6A12.8,12.8,0,0,1,128,89.6Z"/><path class="cls-1" d="M396.8,89.6a12.8,12.8,0,0,1-9.05-21.85l25.6-25.6a12.8,12.8,0,1,1,18.1,18.1l-25.6,25.6A12.76,12.76,0,0,1,396.8,89.6Z"/><path class="cls-1" d="M256,512a12.8,12.8,0,0,1-12.8-12.8V473.6a12.8,12.8,0,1,1,25.6,0v25.6A12.8,12.8,0,0,1,256,512Z"/><path class="cls-1" d="M102.4,473.6a12.8,12.8,0,0,1-9.05-21.85l25.6-25.6a12.8,12.8,0,0,1,18.1,18.1l-25.6,25.6A12.76,12.76,0,0,1,102.4,473.6Z"/><path class="cls-1" d="M422.4,473.6a12.76,12.76,0,0,1-9.05-3.75l-25.6-25.6a12.8,12.8,0,0,1,18.1-18.1l25.6,25.6a12.8,12.8,0,0,1-9.05,21.85Z"/></svg>