<svg id="Layer_1" data-name="Layer 1" xmlns="http://www.w3.org/2000/svg" viewBox="0 0 512 512"><defs><style>.cls-1{fill:#f5ceb7;}.cls-2{fill:#f44747;}.cls-3{fill:#fff;}.cls-4{fill:#b73030;}</style></defs><title>plaster-flat</title><path class="cls-1" d="M474.42,474.32h0a128.09,128.09,0,0,1-181.47,0L38.88,219.61a128.88,128.88,0,0,1,0-181.93h0a128.09,128.09,0,0,1,181.48,0L474.42,292.39A128.88,128.88,0,0,1,474.42,474.32Z"/><path class="cls-2" d="M37.58,474.32h0a128.87,128.87,0,0,1,0-181.93L291.65,37.68a128.1,128.1,0,0,1,181.48,0h0a128.88,128.88,0,0,1,0,181.93L219.06,474.32A128.09,128.09,0,0,1,37.58,474.32Z"/><polygon class="cls-3" points="273.5 419.74 92.03 237.81 237.21 92.26 418.68 274.19 273.5 419.74"/><path class="cls-4" d="M373.31,83.16a12.85,12.85,0,1,1,0-18.19A12.81,12.81,0,0,1,373.31,83.16Z"/><path class="cls-4" d="M409.61,119.55a12.85,12.85,0,1,1,0-18.19A12.81,12.81,0,0,1,409.61,119.55Z"/><path class="cls-4" d="M445.9,155.94a12.85,12.85,0,1,1,0-18.19A12.81,12.81,0,0,1,445.9,155.94Z"/><path class="cls-4" d="M337,119.55a12.85,12.85,0,1,1,0-18.19A12.81,12.81,0,0,1,337,119.55Z"/><path class="cls-4" d="M373.31,155.94a12.85,12.85,0,1,1,0-18.19A12.81,12.81,0,0,1,373.31,155.94Z"/><path class="cls-4" d="M409.61,192.32a12.85,12.85,0,1,1,0-18.19A12.81,12.81,0,0,1,409.61,192.32Z"/><path class="cls-4" d="M119.25,337.87a12.85,12.85,0,1,1,0-18.19A12.81,12.81,0,0,1,119.25,337.87Z"/><path class="cls-4" d="M155.54,374.25a12.85,12.85,0,1,1,0-18.19A12.81,12.81,0,0,1,155.54,374.25Z"/><path class="cls-4" d="M191.84,410.64a12.85,12.85,0,1,1,0-18.19A12.81,12.81,0,0,1,191.84,410.64Z"/><path class="cls-4" d="M83,374.25a12.85,12.85,0,1,1,0-18.19A12.81,12.81,0,0,1,83,374.25Z"/><path class="cls-4" d="M119.25,410.64a12.85,12.85,0,1,1,0-18.19A12.81,12.81,0,0,1,119.25,410.64Z"/><path class="cls-4" d="M155.54,447a12.85,12.85,0,1,1,0-18.19A12.81,12.81,0,0,1,155.54,447Z"/></svg>